<svg xmlns="http://www.w3.org/2000/svg" viewBox="0 0 390 844">
  <!-- Background -->
  <rect width="390" height="844" fill="#0A0E1A"/>

  <!-- Status bar -->
  <rect x="20" y="12" width="40" height="6" rx="3" fill="#1E293B"/>
  <rect x="330" y="12" width="40" height="6" rx="3" fill="#1E293B"/>

  <!-- Header -->
  <text x="30" y="70" font-family="'Inter', Arial, sans-serif" font-size="24" font-weight="700" fill="#E2E8F0">Categories</text>

  <!-- Category cards -->
  <!-- Food & Dining -->
  <rect x="20" y="95" width="350" height="72" rx="14" fill="#111827"/>
  <circle cx="56" cy="131" r="22" fill="#00E5A0" fill-opacity="0.15"/>
  <text x="56" y="137" text-anchor="middle" font-family="'Inter', Arial, sans-serif" font-size="16" fill="#00E5A0">F</text>
  <rect x="88" y="118" width="100" height="9" rx="4.5" fill="#1E293B"/>
  <rect x="88" y="135" width="60" height="6" rx="3" fill="#1E293B" fill-opacity="0.5"/>
  <text x="340" y="128" text-anchor="end" font-family="'Inter', Arial, sans-serif" font-size="16" font-weight="600" fill="#E2E8F0">$820</text>
  <!-- Progress bar -->
  <rect x="88" y="148" width="200" height="4" rx="2" fill="#1E293B"/>
  <rect x="88" y="148" width="130" height="4" rx="2" fill="#00E5A0"/>

  <!-- Shopping -->
  <rect x="20" y="177" width="350" height="72" rx="14" fill="#111827"/>
  <circle cx="56" cy="213" r="22" fill="#3B82F6" fill-opacity="0.15"/>
  <text x="56" y="219" text-anchor="middle" font-family="'Inter', Arial, sans-serif" font-size="16" fill="#3B82F6">S</text>
  <rect x="88" y="200" width="80" height="9" rx="4.5" fill="#1E293B"/>
  <rect x="88" y="217" width="50" height="6" rx="3" fill="#1E293B" fill-opacity="0.5"/>
  <text x="340" y="210" text-anchor="end" font-family="'Inter', Arial, sans-serif" font-size="16" font-weight="600" fill="#E2E8F0">$650</text>
  <rect x="88" y="230" width="200" height="4" rx="2" fill="#1E293B"/>
  <rect x="88" y="230" width="100" height="4" rx="2" fill="#3B82F6"/>

  <!-- Transport -->
  <rect x="20" y="259" width="350" height="72" rx="14" fill="#111827"/>
  <circle cx="56" cy="295" r="22" fill="#F59E0B" fill-opacity="0.15"/>
  <text x="56" y="301" text-anchor="middle" font-family="'Inter', Arial, sans-serif" font-size="16" fill="#F59E0B">T</text>
  <rect x="88" y="282" width="90" height="9" rx="4.5" fill="#1E293B"/>
  <rect x="88" y="299" width="55" height="6" rx="3" fill="#1E293B" fill-opacity="0.5"/>
  <text x="340" y="292" text-anchor="end" font-family="'Inter', Arial, sans-serif" font-size="16" font-weight="600" fill="#E2E8F0">$480</text>
  <rect x="88" y="312" width="200" height="4" rx="2" fill="#1E293B"/>
  <rect x="88" y="312" width="75" height="4" rx="2" fill="#F59E0B"/>

  <!-- Entertainment -->
  <rect x="20" y="341" width="350" height="72" rx="14" fill="#111827"/>
  <circle cx="56" cy="377" r="22" fill="#EF4444" fill-opacity="0.15"/>
  <text x="56" y="383" text-anchor="middle" font-family="'Inter', Arial, sans-serif" font-size="16" fill="#EF4444">E</text>
  <rect x="88" y="364" width="110" height="9" rx="4.5" fill="#1E293B"/>
  <rect x="88" y="381" width="45" height="6" rx="3" fill="#1E293B" fill-opacity="0.5"/>
  <text x="340" y="374" text-anchor="end" font-family="'Inter', Arial, sans-serif" font-size="16" font-weight="600" fill="#E2E8F0">$350</text>
  <rect x="88" y="394" width="200" height="4" rx="2" fill="#1E293B"/>
  <rect x="88" y="394" width="55" height="4" rx="2" fill="#EF4444"/>

  <!-- Utilities -->
  <rect x="20" y="423" width="350" height="72" rx="14" fill="#111827"/>
  <circle cx="56" cy="459" r="22" fill="#8B5CF6" fill-opacity="0.15"/>
  <text x="56" y="465" text-anchor="middle" font-family="'Inter', Arial, sans-serif" font-size="16" fill="#8B5CF6">U</text>
  <rect x="88" y="446" width="70" height="9" rx="4.5" fill="#1E293B"/>
  <rect x="88" y="463" width="50" height="6" rx="3" fill="#1E293B" fill-opacity="0.5"/>
  <text x="340" y="456" text-anchor="end" font-family="'Inter', Arial, sans-serif" font-size="16" font-weight="600" fill="#E2E8F0">$290</text>
  <rect x="88" y="476" width="200" height="4" rx="2" fill="#1E293B"/>
  <rect x="88" y="476" width="45" height="4" rx="2" fill="#8B5CF6"/>

  <!-- Health -->
  <rect x="20" y="505" width="350" height="72" rx="14" fill="#111827"/>
  <circle cx="56" cy="541" r="22" fill="#EC4899" fill-opacity="0.15"/>
  <text x="56" y="547" text-anchor="middle" font-family="'Inter', Arial, sans-serif" font-size="16" fill="#EC4899">H</text>
  <rect x="88" y="528" width="65" height="9" rx="4.5" fill="#1E293B"/>
  <rect x="88" y="545" width="40" height="6" rx="3" fill="#1E293B" fill-opacity="0.5"/>
  <text x="340" y="538" text-anchor="end" font-family="'Inter', Arial, sans-serif" font-size="16" font-weight="600" fill="#E2E8F0">$210</text>
  <rect x="88" y="558" width="200" height="4" rx="2" fill="#1E293B"/>
  <rect x="88" y="558" width="33" height="4" rx="2" fill="#EC4899"/>

  <!-- Travel -->
  <rect x="20" y="587" width="350" height="72" rx="14" fill="#111827"/>
  <circle cx="56" cy="623" r="22" fill="#06B6D4" fill-opacity="0.15"/>
  <text x="56" y="629" text-anchor="middle" font-family="'Inter', Arial, sans-serif" font-size="16" fill="#06B6D4">T</text>
  <rect x="88" y="610" width="55" height="9" rx="4.5" fill="#1E293B"/>
  <rect x="88" y="627" width="35" height="6" rx="3" fill="#1E293B" fill-opacity="0.5"/>
  <text x="340" y="620" text-anchor="end" font-family="'Inter', Arial, sans-serif" font-size="16" font-weight="600" fill="#E2E8F0">$180</text>
  <rect x="88" y="640" width="200" height="4" rx="2" fill="#1E293B"/>
  <rect x="88" y="640" width="28" height="4" rx="2" fill="#06B6D4"/>

  <!-- Other -->
  <rect x="20" y="669" width="350" height="72" rx="14" fill="#111827"/>
  <circle cx="56" cy="705" r="22" fill="#64748B" fill-opacity="0.15"/>
  <text x="56" y="711" text-anchor="middle" font-family="'Inter', Arial, sans-serif" font-size="16" fill="#64748B">O</text>
  <rect x="88" y="692" width="50" height="9" rx="4.5" fill="#1E293B"/>
  <rect x="88" y="709" width="60" height="6" rx="3" fill="#1E293B" fill-opacity="0.5"/>
  <text x="340" y="702" text-anchor="end" font-family="'Inter', Arial, sans-serif" font-size="16" font-weight="600" fill="#E2E8F0">$270</text>
  <rect x="88" y="722" width="200" height="4" rx="2" fill="#1E293B"/>
  <rect x="88" y="722" width="42" height="4" rx="2" fill="#64748B"/>

  <!-- Bottom nav bar -->
  <rect x="0" y="784" width="390" height="60" fill="#111827"/>
  <circle cx="65" cy="810" r="12" fill="#1E293B"/>
  <rect x="53" y="826" width="24" height="4" rx="2" fill="#1E293B"/>
  <circle cx="150" cy="810" r="12" fill="#1E293B"/>
  <rect x="138" y="826" width="24" height="4" rx="2" fill="#1E293B"/>
  <circle cx="235" cy="810" r="12" fill="#1E293B"/>
  <rect x="223" y="826" width="24" height="4" rx="2" fill="#1E293B"/>
  <circle cx="320" cy="810" r="12" fill="#00E5A0" fill-opacity="0.3"/>
  <rect x="308" y="826" width="24" height="4" rx="2" fill="#00E5A0"/>
</svg>
