<svg xmlns="http://www.w3.org/2000/svg" viewBox="0 0 390 844">
  <!-- Background -->
  <rect width="390" height="844" fill="#0A0E1A"/>

  <!-- Status bar -->
  <rect x="20" y="12" width="40" height="6" rx="3" fill="#1E293B"/>
  <rect x="330" y="12" width="40" height="6" rx="3" fill="#1E293B"/>

  <!-- Header -->
  <text x="30" y="70" font-family="'Inter', Arial, sans-serif" font-size="24" font-weight="700" fill="#E2E8F0">Home</text>
  <circle cx="355" cy="62" r="16" fill="#111827"/>

  <!-- Balance card -->
  <rect x="20" y="95" width="350" height="180" rx="16" fill="#111827"/>
  <rect x="40" y="120" width="80" height="8" rx="4" fill="#1E293B"/>
  <text x="40" y="170" font-family="'Inter', Arial, sans-serif" font-size="32" font-weight="700" fill="#00E5A0">$4,250.00</text>
  <rect x="40" y="195" width="120" height="6" rx="3" fill="#1E293B"/>
  <!-- Mini chart bars -->
  <rect x="40" y="235" width="20" height="25" rx="4" fill="#1E293B"/>
  <rect x="68" y="225" width="20" height="35" rx="4" fill="#00E5A0" fill-opacity="0.3"/>
  <rect x="96" y="230" width="20" height="30" rx="4" fill="#1E293B"/>
  <rect x="124" y="215" width="20" height="45" rx="4" fill="#00E5A0" fill-opacity="0.5"/>
  <rect x="152" y="240" width="20" height="20" rx="4" fill="#1E293B"/>
  <rect x="180" y="220" width="20" height="40" rx="4" fill="#00E5A0" fill-opacity="0.4"/>

  <!-- Quick actions -->
  <rect x="20" y="295" width="108" height="80" rx="12" fill="#111827"/>
  <circle cx="74" cy="325" r="14" fill="#00E5A0" fill-opacity="0.15"/>
  <rect x="50" y="352" width="48" height="6" rx="3" fill="#1E293B"/>

  <rect x="140" y="295" width="108" height="80" rx="12" fill="#111827"/>
  <circle cx="194" cy="325" r="14" fill="#00E5A0" fill-opacity="0.15"/>
  <rect x="170" y="352" width="48" height="6" rx="3" fill="#1E293B"/>

  <rect x="260" y="295" width="108" height="80" rx="12" fill="#111827"/>
  <circle cx="314" cy="325" r="14" fill="#00E5A0" fill-opacity="0.15"/>
  <rect x="290" y="352" width="48" height="6" rx="3" fill="#1E293B"/>

  <!-- Recent transactions header -->
  <text x="30" y="415" font-family="'Inter', Arial, sans-serif" font-size="16" font-weight="600" fill="#E2E8F0">Recent Transactions</text>
  <rect x="290" y="404" width="70" height="6" rx="3" fill="#00E5A0" fill-opacity="0.4"/>

  <!-- Transaction items -->
  <g transform="translate(0, 0)">
    <rect x="20" y="435" width="350" height="64" rx="12" fill="#111827"/>
    <circle cx="52" cy="467" r="18" fill="#1E293B"/>
    <rect x="80" y="455" width="100" height="8" rx="4" fill="#1E293B"/>
    <rect x="80" y="470" width="60" height="6" rx="3" fill="#1E293B" fill-opacity="0.5"/>
    <rect x="290" y="458" width="60" height="8" rx="4" fill="#E2E8F0" fill-opacity="0.7"/>
  </g>

  <g transform="translate(0, 74)">
    <rect x="20" y="435" width="350" height="64" rx="12" fill="#111827"/>
    <circle cx="52" cy="467" r="18" fill="#1E293B"/>
    <rect x="80" y="455" width="120" height="8" rx="4" fill="#1E293B"/>
    <rect x="80" y="470" width="50" height="6" rx="3" fill="#1E293B" fill-opacity="0.5"/>
    <rect x="290" y="458" width="55" height="8" rx="4" fill="#E2E8F0" fill-opacity="0.7"/>
  </g>

  <g transform="translate(0, 148)">
    <rect x="20" y="435" width="350" height="64" rx="12" fill="#111827"/>
    <circle cx="52" cy="467" r="18" fill="#1E293B"/>
    <rect x="80" y="455" width="90" height="8" rx="4" fill="#1E293B"/>
    <rect x="80" y="470" width="70" height="6" rx="3" fill="#1E293B" fill-opacity="0.5"/>
    <rect x="290" y="458" width="50" height="8" rx="4" fill="#E2E8F0" fill-opacity="0.7"/>
  </g>

  <g transform="translate(0, 222)">
    <rect x="20" y="435" width="350" height="64" rx="12" fill="#111827"/>
    <circle cx="52" cy="467" r="18" fill="#1E293B"/>
    <rect x="80" y="455" width="110" height="8" rx="4" fill="#1E293B"/>
    <rect x="80" y="470" width="55" height="6" rx="3" fill="#1E293B" fill-opacity="0.5"/>
    <rect x="290" y="458" width="65" height="8" rx="4" fill="#E2E8F0" fill-opacity="0.7"/>
  </g>

  <!-- Bottom nav bar -->
  <rect x="0" y="784" width="390" height="60" fill="#111827"/>
  <circle cx="65" cy="810" r="12" fill="#00E5A0" fill-opacity="0.3"/>
  <rect x="53" y="826" width="24" height="4" rx="2" fill="#00E5A0"/>
  <circle cx="150" cy="810" r="12" fill="#1E293B"/>
  <rect x="138" y="826" width="24" height="4" rx="2" fill="#1E293B"/>
  <circle cx="235" cy="810" r="12" fill="#1E293B"/>
  <rect x="223" y="826" width="24" height="4" rx="2" fill="#1E293B"/>
  <circle cx="320" cy="810" r="12" fill="#1E293B"/>
  <rect x="308" y="826" width="24" height="4" rx="2" fill="#1E293B"/>
</svg>
